<svg xmlns="http://www.w3.org/2000/svg" width="20" height="15" viewBox="0 0 20 15">
    <path fill="#FFF" fill-rule="nonzero" d="M3.967 12.326C2.237 11.268.852 9.768 0 8c1.704-3.535 5.54-6 10-6 1.299 0 2.545.209 3.7.593L15.646.646a.5.5 0 1 1 .708.708l-13 13a.5.5 0 1 1-.708-.708l1.32-1.32zm8.486-8.486A4 4 0 0 0 6.84 9.453l5.613-5.613zm-6.324 6.324A4.98 4.98 0 0 1 5 7c0-1.283.484-2.454 1.278-3.34C4.065 4.48 2.222 6.015 1.125 8c.823 1.49 2.066 2.727 3.571 3.597l1.433-1.433zm8.156-5.742a5 5 0 0 1-6.863 6.863l.734-.734a4 4 0 0 0 5.394-5.394l.735-.735zm-7.941 7.941C7.483 12.776 8.718 13 10 13c3.805 0 7.205-1.975 8.875-5-.94-1.701-2.426-3.07-4.225-3.943l.745-.745C17.422 4.376 19.045 6.02 20 8c-1.704 3.535-5.54 6-10 6-1.577 0-3.076-.308-4.43-.863l.774-.774z"/>
</svg>
