<svg xmlns="http://www.w3.org/2000/svg" width="16" height="16" viewBox="0 0 16 16">
    <path fill="#FFF" fill-rule="nonzero" d="M9.414 8l1.417 1.416a.996.996 0 0 1-.003 1.412c-.39.391-1.027.387-1.412.003L8 9.414l-1.416 1.417a.996.996 0 0 1-1.412-.003 1.003 1.003 0 0 1-.003-1.412L6.586 8 5.169 6.584a.996.996 0 0 1 .003-1.412 1.003 1.003 0 0 1 1.412-.003L8 6.586l1.416-1.417a.996.996 0 0 1 1.412.003c.391.39.387 1.027.003 1.412L9.414 8zm-7.07 5.657A8 8 0 1 1 13.656 2.343 8 8 0 0 1 2.343 13.657zm1.413-1.414a6 6 0 1 0 8.486-8.486 6 6 0 0 0-8.486 8.486z"/>
</svg>
