<svg xmlns="http://www.w3.org/2000/svg" width="32" height="28" viewBox="0 0 32 28">
    <path fill="#FFF" fill-rule="nonzero" d="M17.727.992l13.998 24C32.502 26.326 31.54 28 29.997 28H2.003C.459 28-.502 26.326.275 24.992l13.998-24c.771-1.323 2.683-1.323 3.454 0zM15.26 18h1.482l.753-3.038c.265-1.07.487-2.828.495-3.932l.03-4.024A.991.991 0 0 0 17.033 6h-2.031c-.549 0-.99.44-.986 1.006l.03 4.024c.008 1.101.223 2.86.481 3.932L15.26 18zM14 22.032c0 1.143.908 1.968 2.017 1.968C17.092 24 18 23.175 18 22.032 18 20.825 17.092 20 16.017 20c-1.11 0-2.017.825-2.017 2.032z"/>
</svg>
