<?xml version="1.0" encoding="UTF-8" standalone="no"?>
<svg width="24px" height="24px" viewBox="0 0 24 24" version="1.1" xmlns="http://www.w3.org/2000/svg" xmlns:xlink="http://www.w3.org/1999/xlink">
    <!-- Generator: Sketch 3.8.2 (29753) - http://www.bohemiancoding.com/sketch -->
    <title>Close</title>
    <desc>Created with Sketch.</desc>
    <defs></defs>
    <g id="Page-1" stroke="none" stroke-width="1" fill="none" fill-rule="evenodd">
        <g id="03-Booker" transform="translate(-912.000000, -46.000000)" fill="#FFFFFF">
            <path d="M925.414214,58 L928.944907,54.4693066 C929.338692,54.0755211 929.340272,53.4407768 928.949747,53.0502525 C928.556501,52.6570056 927.923891,52.6618954 927.530693,53.055093 L924,56.5857864 L920.469307,53.055093 C920.075521,52.6613076 919.440777,52.6597282 919.050253,53.0502525 C918.657006,53.4434995 918.661895,54.076109 919.055093,54.4693066 L922.585786,58 L919.055093,61.5306934 C918.661308,61.9244789 918.659728,62.5592232 919.050253,62.9497475 C919.443499,63.3429944 920.076109,63.3381046 920.469307,62.944907 L924,59.4142136 L927.530693,62.944907 C927.924479,63.3386924 928.559223,63.3402718 928.949747,62.9497475 C929.342994,62.5565005 929.338105,61.923891 928.944907,61.5306934 L925.414214,58 Z M924,70 C917.372583,70 912,64.627417 912,58 C912,51.372583 917.372583,46 924,46 C930.627417,46 936,51.372583 936,58 C936,64.627417 930.627417,70 924,70 Z M924,68 C929.522847,68 934,63.5228475 934,58 C934,52.4771525 929.522847,48 924,48 C918.477153,48 914,52.4771525 914,58 C914,63.5228475 918.477153,68 924,68 Z" id="Close"></path>
        </g>
    </g>
</svg>