<svg xmlns="http://www.w3.org/2000/svg" width="118" height="83" viewBox="0 0 118 83">
    <g fill="none" fill-rule="evenodd">
        <g fill="#FFF" fill-rule="nonzero">
            <g>
                <g>
                    <path d="M89.129.925c4.722-1.42 9.518.96 10.652 4.728l.054.19 17.293 43.435.103.23.096.234c1.54 3.905-.248 8.57-4.775 10.77l-.29.136-13.76 5.548v7.082l-.003.26-.011.26c-.26 4.483-3.91 8.076-8.4 8.205l-.258.004H8.666l-.258-.004-.257-.011C3.7 81.73.132 78.055.004 73.53L0 73.27V26.603l.004-.26.01-.26c.26-4.483 3.912-8.076 8.401-8.205l.258-.004h38.115l.282-.045L88.608 1.097l.259-.09zm7.508 42.19H1.867v30.187l.004.241.012.238c.243 3.477 3.052 6.227 6.534 6.353l.24.005h81.18l.239-.004.235-.013c3.441-.247 6.195-3.092 6.321-6.571l.005-.24V43.115zm1.231-37.08c-1.494-2.974-4.781-4.435-8.274-3.29l-.256.089-37.308 15.04h37.807l.258.004.257.011c4.45.262 8.019 3.938 8.147 8.462l.004.26v37.54l13.114-5.274.19-.08.214-.1c2.964-1.431 4.553-4.819 3.487-8.385l-.084-.266L98.07 6.47l-.097-.22zM96.637 31.44H1.867v9.783h94.77V31.44zm-6.8-11.675H8.666l-.24.004-.237.013c-3.46.244-6.193 3.07-6.318 6.57l-.005.241v2.955h94.77v-2.946l-.004-.241-.012-.24c-.25-3.566-3.196-6.356-6.783-6.356z" transform="translate(-442 -232) translate(381 232) translate(61)"/>
                    <path d="M33.005 54.028v1.9H9.995v-1.9h23.01zM46.33 68.228v1.9H9.666v-1.9H46.33zM82.104 60.445c3.714 0 6.733 3.04 6.733 6.783 0 3.744-3.019 6.783-6.733 6.783-1.066 0-2.12-.267-3.098-.784l-.273-.152-.495-.29-.504.295-.274.152-.293.146c-.887.417-1.836.633-2.796.633-3.714 0-6.732-3.039-6.732-6.783 0-3.743 3.018-6.783 6.732-6.783 1.066 0 2.12.268 3.098.785l.274.152.495.29.504-.295.274-.152.293-.147c.886-.416 1.836-.633 2.795-.633zm0 1.892c-1.034 0-2.066.391-3.085 1.123l-.23.172-.255.204-.244.21-.05.044-.042-.04c-.161-.144-.325-.281-.494-.412-1.092-.846-2.208-1.301-3.333-1.301-2.675 0-4.866 2.204-4.866 4.891s2.191 4.892 4.866 4.892c1.052 0 2.093-.392 3.107-1.125l.23-.172.253-.205.242-.211.025-.024.254.228.248.203c1.077.849 2.21 1.306 3.374 1.306 2.675 0 4.867-2.205 4.867-4.892 0-2.687-2.192-4.891-4.867-4.891z" transform="translate(-442 -232) translate(381 232) translate(61)"/>
                </g>
            </g>
        </g>
    </g>
</svg>
