<?xml version="1.0" encoding="UTF-8" standalone="no"?>
<svg width="16px" height="14px" viewBox="0 0 16 14" version="1.1" xmlns="http://www.w3.org/2000/svg" xmlns:xlink="http://www.w3.org/1999/xlink">
    <!-- Generator: Sketch 39.1 (31720) - http://www.bohemiancoding.com/sketch -->
    <title>Warning green</title>
    <desc>Created with Sketch.</desc>
    <defs></defs>
    <g id="Screen-Flow" stroke="none" stroke-width="1" fill="none" fill-rule="evenodd">
        <path d="M8.8637789,0.496128974 L15.8637789,12.496129 C16.2526619,13.1627856 15.7717908,14 15,14 L1,14 C0.228209166,14 -0.25266194,13.1627856 0.136221099,12.496129 L7.1362211,0.496128974 C7.52209919,-0.165376325 8.47790081,-0.165376325 8.8637789,0.496128974 Z M7.6295,9 L8.3705,9 L8.74717752,7.48104991 C8.87989723,6.94585838 8.99078073,6.0672027 8.99486883,5.5149958 L9.00610681,3.99700406 C9.01018323,3.44637388 8.5675103,2.99999994 8.00872804,2.99999995 C7.45381454,2.99999996 7.00726118,3.44479719 7.01134927,3.99700409 L7.02258725,5.51499584 C7.02666367,6.06562601 7.13439872,6.9453765 7.2634796,7.48104993 L7.6295,9 Z M7,11.015873 C7,11.5873016 7.45378151,12 8.00840336,12 C8.54621849,12 9,11.5873016 9,11.015873 C9,10.4126984 8.54621849,10 8.00840336,10 C7.45378151,10 7,10.4126984 7,11.015873 Z" id="Warning-red" fill="#ffdf00"></path>
    </g>
</svg>